<svg width="50" height="50" viewBox="0 0 50 50" fill="none" xmlns="http://www.w3.org/2000/svg">
<path d="M39.9636 38.841C39.2601 32.398 33.6666 28.5515 25.0016 28.5515C16.6541 28.5515 11.2471 31.9755 10.1681 37.949C10.0241 38.7645 9.96411 40.3465 9.96411 41.013C9.96411 41.6485 10.4801 42.1649 11.1161 42.1649C11.7521 42.1649 12.2681 41.649 12.2681 41.013C12.2681 40.3165 12.3341 38.934 12.4366 38.3555C13.6151 31.83 20.8151 30.856 25.0021 30.856C28.5416 30.856 36.8631 31.6585 37.6736 39.087C37.6881 39.248 37.7131 40.2425 37.7331 41.8295C37.7411 42.461 38.2546 42.9675 38.8846 42.9675C38.8896 42.9675 38.8951 42.9675 38.8986 42.9675C39.5341 42.9595 40.0441 42.4375 40.0366 41.802C40.0211 40.618 39.9971 39.1455 39.9636 38.841ZM25.0016 26C29.6186 26 33.3746 21.4965 33.3746 15.961C33.3746 10.704 29.9311 7.03296 25.0016 7.03296C20.0721 7.03296 16.6286 10.7045 16.6286 15.961C16.6286 21.4965 20.3846 26 25.0016 26ZM25.0016 9.33696C28.6321 9.33696 31.0711 11.9995 31.0711 15.9615C31.0711 20.2265 28.3486 23.6974 25.0016 23.6974C21.6546 23.6974 18.9321 20.2275 18.9321 15.9615C18.9321 11.9985 21.3711 9.33696 25.0016 9.33696Z" fill="black"/>
</svg>