<svg width="128" height="128" viewBox="0 0 128 128" fill="none" xmlns="http://www.w3.org/2000/svg">
<path d="M32 10.6667C35.5539 18.6632 36.8202 29.8156 37.1666 33.5001C33.8975 37.6533 31.1179 41.5752 28.6666 45.5001C24.598 44.1378 18.5059 43.2115 10.6666 44.8334C15.4666 50.1667 17.6666 55.5001 17.6666 55.5001C17.6666 55.5001 14.3666 57.0334 11.1666 59.1668C14.3666 62.3668 15.5 66.1668 15.5 66.1668C15.5 66.1668 12.2666 68.7334 10.6666 70.3334C12.7009 72.1643 14.9737 74.8797 17 77.5001C16.6714 79.373 16.2781 81.1271 16 83.1668C14.4 94.3668 25 102.967 30.3333 103.5C34.6 109.367 44.2666 117.333 53.3333 117.333H64H74.6666C83.7333 117.333 93.2666 109.367 97 103.5C102.333 102.967 113.1 94.3668 111.5 83.1668C111.289 81.3146 111.092 79.714 110.833 78.0001C112.934 75.258 115.198 72.2556 117.333 70.3334C115.733 68.2001 112.5 66.1668 112.5 66.1668C112.5 66.1668 113.633 62.3668 116.833 59.1668C113.633 57.0334 110.333 55.5001 110.333 55.5001C110.333 55.5001 112.533 50.1667 117.333 44.8334C109.494 43.2115 103.402 44.1378 99.3333 45.5001C96.8944 41.5752 94.1023 37.6533 90.8333 33.5001C91.1797 29.8156 92.446 18.6632 96 10.6667C90.8525 12.211 81.2488 20.2518 78.6666 28.0001C74.4153 27.2396 69.4476 26.6667 64 26.6667C58.5523 26.6667 53.5846 27.2396 49.3333 28.0001C46.7511 20.2518 37.1474 12.211 32 10.6667ZM64 37.3334C73.0666 37.3334 80 38.9667 82.6666 39.5001C93.3333 53.3667 98.6666 64.0667 101.333 84.3334C101.867 89.1334 97.0666 92.3001 96 92.8334L91.1666 93.3334L88.5 97.6668C85.8333 101.4 78.9333 106.667 74.6666 106.667H64H53.3333C49.0666 106.667 42.1666 101.4 39.5 97.6668L36.8333 93.3334L32 92.8334C30.9333 92.3001 26.1333 89.1334 26.6666 84.3334C29.3333 64.0667 34.6666 53.3667 45.3333 39.5001C48 38.9667 54.9333 37.3334 64 37.3334ZM45.3333 64.0001C40.5333 64.0001 37.3333 67.2001 37.3333 72.0001C37.3333 76.8001 40.5333 80.0001 45.3333 80.0001C50.1333 80.0001 53.3333 76.8001 53.3333 72.0001C53.3333 67.2001 50.1333 64.0001 45.3333 64.0001ZM82.6666 64.0001C77.8666 64.0001 74.6666 67.2001 74.6666 72.0001C74.6666 76.8001 77.8666 80.0001 82.6666 80.0001C87.4666 80.0001 90.6666 76.8001 90.6666 72.0001C90.6666 67.2001 87.4666 64.0001 82.6666 64.0001ZM52.3333 85.3334C49.6666 85.3334 48 87.0001 48 89.6668C48 92.3334 49.6666 93.8334 52.3333 93.8334C57.6666 93.8334 55.9666 87.4668 61.8333 85.3334H52.3333ZM66.1666 85.3334C71.5 87.4668 70.3333 93.8334 75.6666 93.8334C78.3333 93.8334 80 92.3334 80 89.6668C80 87.0001 78.3333 85.3334 75.6666 85.3334H66.1666Z" fill="black"/>
</svg>
