<svg width="60" height="60" viewBox="0 0 60 60" fill="none" xmlns="http://www.w3.org/2000/svg">
<path d="M48.8092 26.1311C48.5572 24.896 48.1804 23.6825 47.6902 22.5245C47.2087 21.386 46.6132 20.2886 45.9202 19.2623C45.2323 18.2444 44.4436 17.2889 43.5763 16.4222C42.7063 15.5519 41.7505 14.7632 40.7356 14.0777C39.7084 13.3838 38.611 12.788 37.4737 12.3074C36.3136 11.8163 35.1007 11.4401 33.8677 11.1881C31.3369 10.67 28.6615 10.67 26.131 11.1881C24.8995 11.4401 23.6866 11.8163 22.5262 12.3074C21.3883 12.788 20.2909 13.3838 19.2637 14.0777C18.7147 14.4485 18.5704 15.1946 18.9415 15.7442C19.3129 16.292 20.0572 16.4375 20.608 16.0664C21.5062 15.4592 22.4659 14.9384 23.4604 14.5178C24.4753 14.0888 25.5358 13.7597 26.6122 13.5392C28.8271 13.0868 31.1725 13.0868 33.3874 13.5392C34.4644 13.7594 35.5243 14.0888 36.5392 14.5178C37.5334 14.9384 38.4934 15.4595 39.3922 16.0664C40.2805 16.6664 41.1172 17.3573 41.8795 18.1196C42.6388 18.8777 43.3291 19.7147 43.9315 20.6063C44.5378 21.5033 45.0589 22.4633 45.4801 23.4593C45.9085 24.4718 46.2376 25.532 46.4587 26.6117C46.6855 27.7175 46.8004 28.8572 46.8004 29.9987C46.8004 31.1396 46.6855 32.2793 46.4587 33.3863C46.2379 34.4657 45.9085 35.5256 45.4801 36.5381C45.0595 37.532 44.5384 38.4923 43.9315 39.3917C43.5607 39.9407 43.7053 40.6868 44.2543 41.0576C44.4601 41.1971 44.6938 41.2634 44.9245 41.2634C45.31 41.2634 45.6886 41.0783 45.9199 40.7348C46.6141 39.707 47.2096 38.6096 47.6899 37.4732C48.1804 36.3152 48.5566 35.1023 48.8089 33.8672C49.0684 32.6027 49.1998 31.3013 49.1998 29.9987C49.2001 28.6958 49.069 27.3944 48.8092 26.1311Z" fill="black"/>
<path d="M39.3916 43.931C38.494 44.5376 37.5343 45.059 36.5386 45.4802C35.5273 45.908 34.4668 46.2374 33.3874 46.4588C31.1725 46.9112 28.8265 46.9112 26.6128 46.4588C25.5334 46.2374 24.4729 45.908 23.461 45.4802C22.4656 45.059 21.5056 44.5373 20.6074 43.931C19.7179 43.3304 18.8812 42.6395 18.1201 41.879C17.3596 41.1185 16.6693 40.2818 16.0681 39.3923C15.4612 38.4929 14.94 37.5323 14.5194 36.5375C14.091 35.5262 13.762 34.466 13.5408 33.3869C13.3149 32.279 13.2 31.1393 13.2 29.999C13.2 28.8581 13.3149 27.7184 13.5411 26.6114C13.7619 25.532 14.0913 24.4721 14.5197 23.4596C14.9409 22.4636 15.4621 21.5036 16.0684 20.6066C16.4392 20.057 16.2951 19.3109 15.7462 18.9401C15.1953 18.5693 14.4507 18.7145 14.0796 19.2623C13.3863 20.2883 12.7911 21.3857 12.3096 22.5245C11.8191 23.6825 11.4423 24.896 11.1906 26.1305C10.9314 27.3956 10.8 28.697 10.8 29.999C10.8 31.3004 10.9314 32.6018 11.1903 33.8669C11.4429 35.1026 11.8191 36.3155 12.3093 37.4723C12.7899 38.6096 13.3851 39.7073 14.0793 40.7354C14.766 41.7515 15.5547 42.7073 16.4233 43.5755C17.2921 44.4446 18.2478 45.2333 19.264 45.9194C20.29 46.6127 21.3874 47.2085 22.5265 47.6903C23.6836 48.1802 24.8965 48.5564 26.1319 48.8096C27.3967 49.0685 28.6981 49.1999 30.0001 49.1999C31.3015 49.1999 32.6029 49.0685 33.8686 48.8096C35.1037 48.5564 36.3166 48.1802 37.474 47.6903C38.6125 47.2085 39.7099 46.6127 40.7359 45.9194C41.2849 45.5486 41.4292 44.8025 41.0581 44.2529C40.687 43.7054 39.9424 43.5605 39.3916 43.931Z" fill="black"/>
<path d="M22.2512 35.5985C22.4855 35.8328 22.7927 35.9501 23.0996 35.9501C23.4065 35.9501 23.7137 35.8328 23.948 35.5985C24.4169 35.1296 24.4169 34.3703 23.948 33.9014L20.0456 29.999L23.948 26.0966C24.4169 25.6277 24.4169 24.8684 23.948 24.3995C23.4791 23.9306 22.7198 23.9306 22.2512 24.3995L17.5004 29.1506C17.0315 29.6195 17.0315 30.3788 17.5004 30.8477L22.2512 35.5985Z" fill="black"/>
<path d="M37.7484 24.3995C37.2795 23.9306 36.5202 23.9306 36.0516 24.3995C35.583 24.8684 35.5827 25.6277 36.0516 26.0966L39.954 29.999L36.0516 33.9014C35.5827 34.3703 35.5827 35.1296 36.0516 35.5985C36.2859 35.8328 36.5931 35.9501 36.9 35.9501C37.2069 35.9501 37.5141 35.8328 37.7484 35.5985L42.4992 30.8474C42.9681 30.3785 42.9681 29.6192 42.4992 29.1503L37.7484 24.3995Z" fill="black"/>
<path d="M27.1858 38.3965C27.3124 38.4389 27.4408 38.4592 27.5671 38.4592C28.0687 38.4592 28.5367 38.1416 28.705 37.64L33.5707 23.1202C33.781 22.4914 33.4423 21.8116 32.8144 21.6007C32.1862 21.3922 31.5061 21.7291 31.2952 22.3573L26.4295 36.8771C26.2189 37.5059 26.5576 38.1854 27.1858 38.3965Z" fill="black"/>
</svg>
