<svg width="60" height="60" viewBox="0 0 60 60" fill="none" xmlns="http://www.w3.org/2000/svg">
<g clip-path="url(#clip0)">
<path d="M41.141 50.5738H18.8553C16.9696 50.5738 15.4268 49.0309 15.4268 47.1452V12.8595C15.4268 10.9738 16.9696 9.43091 18.8553 9.43091H38.0553L44.5696 15.8595V47.1452C44.5696 49.0309 43.0268 50.5738 41.141 50.5738ZM18.8553 11.1452C17.9125 11.1452 17.141 11.9166 17.141 12.8595V47.1452C17.141 48.0881 17.9125 48.8595 18.8553 48.8595H41.141C42.0839 48.8595 42.8553 48.0881 42.8553 47.1452V16.5452L37.2839 11.1452H18.8553Z" fill="black"/>
<path d="M43.7124 17.1445H37.7124C37.1981 17.1445 36.8552 16.8017 36.8552 16.2874V10.2874C36.8552 9.94452 37.0267 9.60166 37.3695 9.51595C37.7124 9.34452 38.0552 9.43023 38.3124 9.68737L44.3124 15.6874C44.5695 15.9445 44.6552 16.2874 44.4838 16.6302C44.3124 16.9731 44.0552 17.1445 43.7124 17.1445ZM38.5695 15.4302H41.6552L38.5695 12.3445V15.4302Z" fill="black"/>
<path d="M29.9982 24.8589C28.1124 24.8589 26.5696 23.316 26.5696 21.4303C26.5696 19.5446 28.1124 18.0017 29.9982 18.0017C31.8839 18.0017 33.4267 19.5446 33.4267 21.4303C33.4267 23.316 31.8839 24.8589 29.9982 24.8589ZM29.9982 19.716C29.0553 19.716 28.2839 20.4874 28.2839 21.4303C28.2839 22.3731 29.0553 23.1446 29.9982 23.1446C30.941 23.1446 31.7124 22.3731 31.7124 21.4303C31.7124 20.4874 30.941 19.716 29.9982 19.716Z" fill="black"/>
<path d="M35.9983 30.8588H23.9983C23.484 30.8588 23.1411 30.516 23.1411 30.0017C23.1411 26.2302 26.2268 23.1445 29.9983 23.1445C33.7697 23.1445 36.8554 26.2302 36.8554 30.0017C36.8554 30.516 36.5125 30.8588 35.9983 30.8588ZM24.9411 29.1445H35.0554C34.6268 26.7445 32.5697 24.8588 29.9983 24.8588C27.4268 24.8588 25.3697 26.7445 24.9411 29.1445Z" fill="black"/>
<path d="M38.5696 46.2873H21.4267C20.9124 46.2873 20.5696 45.9444 20.5696 45.4301C20.5696 44.9159 20.9124 44.573 21.4267 44.573H38.5696C39.0839 44.573 39.4267 44.9159 39.4267 45.4301C39.4267 45.9444 39.0839 46.2873 38.5696 46.2873Z" fill="black"/>
<path d="M38.5696 41.1445H21.4267C20.9124 41.1445 20.5696 40.8016 20.5696 40.2873C20.5696 39.773 20.9124 39.4302 21.4267 39.4302H38.5696C39.0839 39.4302 39.4267 39.773 39.4267 40.2873C39.4267 40.8016 39.0839 41.1445 38.5696 41.1445Z" fill="black"/>
<path d="M34.2838 36.0016H25.7124C25.1981 36.0016 24.8552 35.6588 24.8552 35.1445C24.8552 34.6302 25.1981 34.2874 25.7124 34.2874H34.2838C34.7981 34.2874 35.1409 34.6302 35.1409 35.1445C35.1409 35.6588 34.7981 36.0016 34.2838 36.0016Z" fill="black"/>
</g>
<defs>
<clipPath id="clip0">
<rect width="60" height="60" fill="white"/>
</clipPath>
</defs>
</svg>
